#N canvas 1117 198 450 300 10;
#X declare -lib mrpeach;
#N canvas 568 164 450 300 osc_server 1;
#X obj 341 -178 import mrpeach;
#X obj 24 -130 pipelist;
#X obj 24 -155 unpackOSC;
#X obj 24 -181 udpreceive 7220;
#X obj 24 -101 routeOSC /rect;
#X obj 99 -148 print raw;
#X obj 24 -10 route_to 0;
#X obj 24 -36 routeOSC /0 /1 /2 /3;
#X obj 53 13 route_to 1;
#X obj 82 35 route_to 2;
#X obj 111 57 route_to 3;
#X connect 1 0 4 0;
#X connect 2 0 1 0;
#X connect 2 1 1 1;
#X connect 3 0 2 0;
#X connect 4 0 7 0;
#X connect 7 0 6 0;
#X connect 7 1 8 0;
#X connect 7 2 9 0;
#X connect 7 3 10 0;
#X restore 28 38 pd osc_server;
#N canvas 3 76 450 300 window 1;
#X obj 63 98 gemwin 70;
#N canvas 252 481 663 490 dimensions 0;
#X obj 100 240 outlet;
#X obj 100 47 inlet;
#X obj 100 76 sel 0 1 2;
#X msg 151 112 destroy \, dimen 600 800 \, fullscreen 0 \, border 1
\, create \, 1;
#X msg 117 172 destroy \, dimen 1024 768 \, fullscreen 0 \, border
1 \, create \, 1;
#X msg 100 202 destroy \, dimen 800 600 \, fullscreen 0 \, border 1
\, create \, 1;
#X msg 134 143 destroy \, dimen 1920 1080 \, fullscreen 1 \, border
0 \, create \, 1;
#X text 507 145 fullscreen;
#X text 483 175 mid \, windowed;
#X text 463 202 small \, windowed;
#X connect 1 0 2 0;
#X connect 2 0 5 0;
#X connect 2 1 4 0;
#X connect 2 2 6 0;
#X connect 2 3 3 0;
#X connect 3 0 0 0;
#X connect 4 0 0 0;
#X connect 5 0 0 0;
#X connect 6 0 0 0;
#X restore 63 62 pd dimensions;
#X obj 63 -16 vradio 15 1 0 4 empty empty Display 0 -8 0 10 -262144
-1 -1 0;
#X text 83 16 Fullscreen;
#X text 84 -15 Windowed;
#X text 83 -1 Large Window;
#N canvas 1 26 188 168 q_to_exit 0;
#X obj 79 28 gemkeyname;
#X obj 79 53 tgl 15 0 empty empty empty 17 7 0 10 -262144 -1 -1 0 1
;
#X obj 103 57 sel q;
#X obj 59 80 spigot;
#X msg 61 102 destroy;
#X obj 61 128 outlet;
#X connect 0 0 1 0;
#X connect 0 1 2 0;
#X connect 1 0 3 1;
#X connect 2 0 3 0;
#X connect 3 0 4 0;
#X connect 4 0 5 0;
#X restore 149 62 pd q_to_exit;
#X connect 1 0 0 0;
#X connect 2 0 1 0;
#X connect 6 0 0 0;
#X restore 35 86 pd window;
#N canvas 857 587 450 300 rectangles 1;
#X obj 18 -36 rect 0;
#X obj 18 -14 rect 1;
#X obj 18 8 rect 2;
#X obj 18 30 rect 3;
#X restore 35 155 pd rectangles;
