#N canvas 984 174 450 300 10;
#X obj 57 -14 gemhead;
#X obj 57 246 rectangle 1 1;
#X obj 57 162 translateXYZ;
#X obj 57 18 alpha;
#X obj 57 90 colorRGB 1 1 1 1;
#X obj 57 195 pix_texture;
#X obj 381 54 loadbang;
#X obj 381 77 f \$0;
#X floatatom 381 101 5 0 0 0 - - -;
#X obj 341 78 f \$1;
#X floatatom 341 102 5 0 0 0 - - -;
#X obj 80 140 r \$1-x;
#X obj 103 116 r \$1-y;
#X obj 126 138 r \$1-z;
#X obj 80 68 r \$1-red;
#X obj 103 28 r \$1-green;
#X obj 126 48 r \$1-blue;
#X obj 150 7 r \$1-alpha;
#X obj 94 223 r \$1-width;
#X obj 132 201 r \$1-height;
#N canvas 135 54 450 300 moveTo 0;
#X obj 34 47 unpack f f f;
#X text 123 46 x y speed;
#X obj 34 14 r \$1-moveTo;
#X obj 34 86 pack f f;
#X obj 34 120 line;
#X obj 95 87 pack f f;
#X obj 95 121 line;
#X obj 34 160 s \$1-x;
#X obj 95 159 s \$1-y;
#X connect 0 0 3 0;
#X connect 0 1 5 0;
#X connect 0 2 3 1;
#X connect 0 2 5 1;
#X connect 2 0 0 0;
#X connect 3 0 4 0;
#X connect 4 0 7 0;
#X connect 5 0 6 0;
#X connect 6 0 8 0;
#X restore 236 7 pd moveTo;
#N canvas 137 104 450 300 colourTo 1;
#X obj 34 86 pack f f;
#X obj 34 120 line;
#X obj 95 87 pack f f;
#X obj 95 121 line;
#X obj 34 47 unpack f f f f f;
#X text 159 47 r g b a speed;
#X obj 34 160 s \$1-red;
#X obj 95 159 s \$1-green;
#X obj 166 85 pack f f;
#X obj 166 119 line;
#X obj 227 86 pack f f;
#X obj 227 120 line;
#X obj 166 159 s \$1-red;
#X obj 227 158 s \$1-green;
#X obj 34 14 r \$1-colourTo;
#X connect 0 0 1 0;
#X connect 1 0 6 0;
#X connect 2 0 3 0;
#X connect 3 0 7 0;
#X connect 4 0 0 0;
#X connect 4 1 2 0;
#X connect 4 2 8 0;
#X connect 4 3 10 0;
#X connect 4 4 0 1;
#X connect 4 4 2 1;
#X connect 4 4 8 1;
#X connect 4 4 10 1;
#X connect 8 0 9 0;
#X connect 9 0 12 0;
#X connect 10 0 11 0;
#X connect 11 0 13 0;
#X connect 14 0 4 0;
#X restore 236 31 pd colourTo;
#X connect 0 0 3 0;
#X connect 2 0 5 0;
#X connect 3 0 4 0;
#X connect 4 0 2 0;
#X connect 5 0 1 0;
#X connect 6 0 7 0;
#X connect 6 0 9 0;
#X connect 7 0 8 0;
#X connect 9 0 10 0;
#X connect 11 0 2 1;
#X connect 12 0 2 2;
#X connect 13 0 2 3;
#X connect 14 0 4 1;
#X connect 15 0 4 2;
#X connect 16 0 4 3;
#X connect 17 0 4 4;
#X connect 18 0 1 1;
#X connect 19 0 1 2;
