#N canvas 1217 746 559 300 10;
#X obj 66 20 inlet;
#X obj 165 159 s \$1-width;
#X obj 232 135 s \$1-height;
#X obj 66 90 s \$1-x;
#X obj 99 67 s \$1-y;
#X obj 300 218 s \$1-red;
#X obj 348 193 s \$1-green;
#X obj 398 217 s \$1-blue;
#X obj 446 193 s \$1-alpha;
#X obj 132 90 s \$1-z;
#X obj 165 111 routeOSC /width /height;
#X obj 300 167 routeOSC /red /green /blue /alpha;
#X obj 66 43 routeOSC /x /y /z;
#X text 7 42 Position;
#X text 128 110 Size;
#X text 253 167 Colour;
#X obj 28 216 s \$1-moveTo;
#X obj 28 189 routeOSC /moveTo /colourTo sizeTo;
#X obj 125 215 s \$1-colourTo;
#X obj 223 215 s \$1-sizeTo;
#X connect 0 0 12 0;
#X connect 10 0 1 0;
#X connect 10 1 2 0;
#X connect 10 2 11 0;
#X connect 11 0 5 0;
#X connect 11 1 6 0;
#X connect 11 2 7 0;
#X connect 11 3 8 0;
#X connect 12 0 3 0;
#X connect 12 1 4 0;
#X connect 12 2 9 0;
#X connect 12 3 10 0;
#X connect 12 3 17 0;
#X connect 17 0 16 0;
#X connect 17 1 18 0;
#X connect 17 2 19 0;
